HIERARCHY
ROOT Hips
{
  OFFSET 0 0.240689 0
  CHANNELS 6 Xposition Yposition Zposition Zrotation Xrotation Yrotation
  JOINT Bip01_Spine0
  {
    OFFSET 0 -24.7459 49.7988
    CHANNELS 6 Xposition Yposition Zposition Zrotation Xrotation Yrotation
    JOINT Bip01_Pelvis
    {
      OFFSET 0 0 0
      CHANNELS 6 Xposition Yposition Zposition Zrotation Xrotation Yrotation
      JOINT Bip01_Spine0_Tail
      {
        OFFSET -6.47486 -3.86022 0
        CHANNELS 6 Xposition Yposition Zposition Zrotation Xrotation Yrotation
        JOINT Bip01_Spine0_Tail1
        {
          OFFSET 10.3837 -0.00825882 0
          CHANNELS 6 Xposition Yposition Zposition Zrotation Xrotation Yrotation
          JOINT Bip01_Spine0_Tail2
          {
            OFFSET 10.3837 -0.00826263 0
            CHANNELS 6 Xposition Yposition Zposition Zrotation Xrotation Yrotation
            JOINT Bip01_Spine0_Tail3
            {
              OFFSET 10.3837 -0.00825882 0
              CHANNELS 6 Xposition Yposition Zposition Zrotation Xrotation Yrotation
              JOINT Bip01_Spine0_Tail4
              {
                OFFSET 10.3837 -0.00826263 0
                CHANNELS 6 Xposition Yposition Zposition Zrotation Xrotation Yrotation
                End Site
                {
                  OFFSET 0 0 0
                }
              }
            }
          }
        }
      }
      JOINT Bip01_R_Thigh
      {
        OFFSET 0 -1.52588e-005 -8.75617
        CHANNELS 6 Xposition Yposition Zposition Zrotation Xrotation Yrotation
        JOINT Bip01_R_Calf
        {
          OFFSET 19.7638 0 0
          CHANNELS 6 Xposition Yposition Zposition Zrotation Xrotation Yrotation
          JOINT Bip01_R_Foot
          {
            OFFSET 18.6534 0 0
            CHANNELS 6 Xposition Yposition Zposition Zrotation Xrotation Yrotation
            JOINT Bip01_R_Toe0
            {
              OFFSET 5.09145 13.9567 0
              CHANNELS 6 Xposition Yposition Zposition Zrotation Xrotation Yrotation
              JOINT Bip01_R_Toe01
              {
                OFFSET 4.28803 0 0
                CHANNELS 6 Xposition Yposition Zposition Zrotation Xrotation Yrotation
                JOINT Bip01_R_Toe02
                {
                  OFFSET 3.85801 0 0
                  CHANNELS 6 Xposition Yposition Zposition Zrotation Xrotation Yrotation
                  End Site
                  {
                    OFFSET 0 0 0
                  }
                }
              }
            }
          }
        }
      }
      JOINT Bip01_L_Thigh
      {
        OFFSET 0 1.52588e-005 8.75617
        CHANNELS 6 Xposition Yposition Zposition Zrotation Xrotation Yrotation
        JOINT Bip01_L_Calf
        {
          OFFSET 19.7638 0 0
          CHANNELS 6 Xposition Yposition Zposition Zrotation Xrotation Yrotation
          JOINT Bip01_L_Foot
          {
            OFFSET 18.6534 0 0
            CHANNELS 6 Xposition Yposition Zposition Zrotation Xrotation Yrotation
            JOINT Bip01_L_Toe0
            {
              OFFSET 5.09144 13.9567 0
              CHANNELS 6 Xposition Yposition Zposition Zrotation Xrotation Yrotation
              JOINT Bip01_L_Toe01
              {
                OFFSET 4.28802 0 0
                CHANNELS 6 Xposition Yposition Zposition Zrotation Xrotation Yrotation
                JOINT Bip01_L_Toe02
                {
                  OFFSET 3.85801 0 0
                  CHANNELS 6 Xposition Yposition Zposition Zrotation Xrotation Yrotation
                  End Site
                  {
                    OFFSET 0 0 0
                  }
                }
              }
            }
          }
        }
      }
      JOINT Bip01_Spine
      {
        OFFSET 9.14835 -0.00640869 -1.1e-005
        CHANNELS 6 Xposition Yposition Zposition Zrotation Xrotation Yrotation
        JOINT Bip01_Spine1
        {
          OFFSET 8.04366 -0.00638199 0
          CHANNELS 6 Xposition Yposition Zposition Zrotation Xrotation Yrotation
          JOINT Bip01_Spine2
          {
            OFFSET 8.04367 -0.00639343 0
            CHANNELS 6 Xposition Yposition Zposition Zrotation Xrotation Yrotation
            JOINT Bip01_Spine3
            {
              OFFSET 8.04304 -0.00831222 0
              CHANNELS 6 Xposition Yposition Zposition Zrotation Xrotation Yrotation
              JOINT Bip01_Neck
              {
                OFFSET 10.6685 1.06813 0
                CHANNELS 6 Xposition Yposition Zposition Zrotation Xrotation Yrotation
                JOINT Bip01_R_Clavicle
                {
                  OFFSET -3.21661 -4.89635 -9.04802
                  CHANNELS 6 Xposition Yposition Zposition Zrotation Xrotation Yrotation
                  JOINT Bip01_R_UpperArm
                  {
                    OFFSET 19.0492 0 0
                    CHANNELS 6 Xposition Yposition Zposition Zrotation Xrotation Yrotation
                    JOINT Bip01_R_Forearm
                    {
                      OFFSET 10.3706 0 0
                      CHANNELS 6 Xposition Yposition Zposition Zrotation Xrotation Yrotation
                      JOINT Bip01_R_Hand
                      {
                        OFFSET 22.8632 0 0
                        CHANNELS 6 Xposition Yposition Zposition Zrotation Xrotation Yrotation
                        JOINT Bip01_R_Finger0
                        {
                          OFFSET 6.48259 0.103651 0.504496
                          CHANNELS 6 Xposition Yposition Zposition Zrotation Xrotation Yrotation
                          JOINT Bip01_R_Finger01
                          {
                            OFFSET 3.66847 0 0
                            CHANNELS 6 Xposition Yposition Zposition Zrotation Xrotation Yrotation
                            End Site
                            {
                              OFFSET 0 0 0
                            }
                          }
                        }
                      }
                    }
                  }
                }
                JOINT Bip01_L_Clavicle
                {
                  OFFSET -3.21661 -4.89641 9.04797
                  CHANNELS 6 Xposition Yposition Zposition Zrotation Xrotation Yrotation
                  JOINT Bip01_L_UpperArm
                  {
                    OFFSET 19.0492 0 0
                    CHANNELS 6 Xposition Yposition Zposition Zrotation Xrotation Yrotation
                    JOINT Bip01_L_Forearm
                    {
                      OFFSET 10.3706 0 0
                      CHANNELS 6 Xposition Yposition Zposition Zrotation Xrotation Yrotation
                      JOINT Bip01_L_Hand
                      {
                        OFFSET 22.8631 0 0
                        CHANNELS 6 Xposition Yposition Zposition Zrotation Xrotation Yrotation
                        JOINT Bip01_L_Finger0
                        {
                          OFFSET 6.48257 0.103655 -0.504492
                          CHANNELS 6 Xposition Yposition Zposition Zrotation Xrotation Yrotation
                          JOINT Bip01_L_Finger01
                          {
                            OFFSET 3.66844 0 0
                            CHANNELS 6 Xposition Yposition Zposition Zrotation Xrotation Yrotation
                            End Site
                            {
                              OFFSET 0 0 0
                            }
                          }
                        }
                      }
                    }
                  }
                }
                JOINT Bip01_Neck1
                {
                  OFFSET 7.52459 -0.00656509 0
                  CHANNELS 6 Xposition Yposition Zposition Zrotation Xrotation Yrotation
                  JOINT Bip01_Neck2
                  {
                    OFFSET 8.4783 -0.00588226 0
                    CHANNELS 6 Xposition Yposition Zposition Zrotation Xrotation Yrotation
                    JOINT Bip01_Head
                    {
                      OFFSET 8.41606 0 0
                      CHANNELS 6 Xposition Yposition Zposition Zrotation Xrotation Yrotation
                      JOINT EyesBlue
                      {
                        OFFSET 0 0 0
                        CHANNELS 6 Xposition Yposition Zposition Zrotation Xrotation Yrotation
                        JOINT EyesBlue_2
                        {
                          OFFSET 0 -0.500007 0
                          CHANNELS 6 Xposition Yposition Zposition Zrotation Xrotation Yrotation
                          End Site
                          {
                            OFFSET 0 0 0
                          }
                        }
                      }
                      JOINT Bip01_Head2_Eyeleds
                      {
                        OFFSET 6.52751 7.61746 2.2e-005
                        CHANNELS 6 Xposition Yposition Zposition Zrotation Xrotation Yrotation
                        End Site
                        {
                          OFFSET 0 0 0
                        }
                      }
                      JOINT Bip01_Head_Muzzle
                      {
                        OFFSET 2.88628 13.9448 3.88994
                        CHANNELS 6 Xposition Yposition Zposition Zrotation Xrotation Yrotation
                        End Site
                        {
                          OFFSET 0 0 0
                        }
                      }
                      JOINT Bip01_Head1_Jaw
                      {
                        OFFSET 0.271065 1.32405 0
                        CHANNELS 6 Xposition Yposition Zposition Zrotation Xrotation Yrotation
                        JOINT _Bip01_Head11_TungeControler
                        {
                          OFFSET 4.61616 5.82872 0
                          CHANNELS 6 Xposition Yposition Zposition Zrotation Xrotation Yrotation
                          JOINT _Bip01_Ponytail3_tunge
                          {
                            OFFSET 5.17785 2.98805 0
                            CHANNELS 6 Xposition Yposition Zposition Zrotation Xrotation Yrotation
                            JOINT Bip01_Ponytail31
                            {
                              OFFSET 5.57569 0 0
                              CHANNELS 6 Xposition Yposition Zposition Zrotation Xrotation Yrotation
                              JOINT Bip01_Ponytail32
                              {
                                OFFSET 2.93165 0 0
                                CHANNELS 6 Xposition Yposition Zposition Zrotation Xrotation Yrotation
                                JOINT Bip01_Ponytail3Nub
                                {
                                  OFFSET 3.30155 0 0
                                  CHANNELS 6 Xposition Yposition Zposition Zrotation Xrotation Yrotation
                                  End Site
                                  {
                                    OFFSET 0 0 0
                                  }
                                }
                              }
                            }
                          }
                        }
                        JOINT Bip01_Head_JawNub
                        {
                          OFFSET 15.5776 -0.000389099 0
                          CHANNELS 6 Xposition Yposition Zposition Zrotation Xrotation Yrotation
                          End Site
                          {
                            OFFSET 0 0 0
                          }
                        }
                      }
                      JOINT Bip01_Ponytail2
                      {
                        OFFSET 9.40334 1.03973 -6.51764
                        CHANNELS 6 Xposition Yposition Zposition Zrotation Xrotation Yrotation
                        JOINT Bip01_Ponytail21
                        {
                          OFFSET 2.77018 -0.00640106 1.33514e-005
                          CHANNELS 6 Xposition Yposition Zposition Zrotation Xrotation Yrotation
                          End Site
                          {
                            OFFSET 0 0 0
                          }
                        }
                      }
                      JOINT Bip01_Ponytail1
                      {
                        OFFSET 9.40368 1.03969 6.51768
                        CHANNELS 6 Xposition Yposition Zposition Zrotation Xrotation Yrotation
                        JOINT Bip01_Ponytail11
                        {
                          OFFSET 2.77018 -0.00640487 0
                          CHANNELS 6 Xposition Yposition Zposition Zrotation Xrotation Yrotation
                          End Site
                          {
                            OFFSET 0 0 0
                          }
                        }
                      }
                    }
                  }
                }
              }
            }
          }
        }
      }
    }
  }
}
MOTION
Frames:	4
Frame Time:	0.0333333
0 0 0 -0 -90 -0 21.8513 -28.7007 10.0842 -118.805 75.7022 -80.9653 0 0 0 -90.0003 0.000303159 -99.0003 -6.39551 -3.85977 1.01343 143.183 1.36164 21.0567 10.3809 -0.007484 -0.002567 -17.5425 18.1542 -0.200255 10.3866 -0.006023 0.004602 27.5968 -32.5305 -19.3597 10.3872 -0.005796 -0.004207 33.8458 31.4483 -10.0918 10.3879 -0.006753 6.99964e-005 34.1969 0.0132376 15.0015 1.3e-005 -1.1e-005 -8.75617 -114.542 -3.10135 167.622 19.7638 2e-006 -1e-006 -70.8293 -0.000231478 -0.00138408 18.6534 -1e-006 1e-006 -17.3881 7.65847 -4.45494 5.09144 13.9567 -1e-006 70.1595 8.30104 17.1786 4.288 1e-006 -5.32907e-015 20.0009 -2.2482e-005 -1.03411e-005 3.85799 1e-006 1.5099e-014 -45 -6.85817e-006 7.29908e-006 -1.1e-005 9e-006 8.75617 -93.9089 12.334 156.457 19.7638 -3.55271e-015 0 -52.8285 -0.000567604 -0.00168236 18.6534 -1e-006 1.06581e-014 -0.164306 10.3653 -19.3616 5.09143 13.9567 1.59908e-006 70.3981 2.79391 4.14844 4.288 4.26326e-014 -1e-006 20.0003 -4.18054e-007 -5.90212e-007 3.85799 1e-006 -1e-006 -45 -1.26625e-005 -1.07927e-005 9.03557 -0.006311 -1.43095 0.0464353 0.00749681 9.00046 8.04461 -0.006334 0 8.5 7.35033e-006 -1.85935e-005 8.04434 -0.006294 9.7e-005 6.49171 -0.560806 6.81168 8.04535 -0.008085 2.40033e-005 12.3033 0.596537 3.86055 10.6709 1.06821 0.00016431 9.83899 0.00217194 0.00181916 -4.88318 -3.23981 -9.0479 170.122 -74.9166 142.005 19.0492 -1e-006 -3e-006 85.5199 22.4057 -84.9018 10.3706 -1.06581e-014 -7.10543e-015 -59.7038 -4.02344e-005 -0.000153023 22.8631 1.06581e-014 2.44249e-015 -7.36542 6.21537 -9.392 6.48256 0.103651 0.504494 -18.2002 -13.6575 -7.3983 3.66843 -2e-006 2e-006 40.107 3.798e-006 5.87221e-006 -4.88304 -3.2397 9.04777 -9.88048 88.5832 51.4993 19.0492 1e-006 3e-006 56.5728 -19.831 90.2411 10.3706 -1e-006 -1e-006 -107.203 -0.000130328 0.000942255 22.8631 -7.81597e-014 1e-006 38.1636 -21.9755 38.4938 6.48256 0.103649 -0.504497 -18.2 13.6582 7.40053 3.66843 -3e-006 2.98428e-013 39.4727 1.25308e-005 -3.01399e-006 7.52606 -0.006635 3.19989e-005 -0.465147 -0.0995556 7.69397 8.47433 -0.00657 2.9999e-005 -5.99925 0.00944627 10.5016 8.41604 -1.06581e-014 7.10543e-015 -69.5396 -3.02198 3.51695 -1e-006 4e-006 -1e-006 -23.1098 1.37701e-015 90 1.15107e-005 -0.500007 3.81334e-006 -109.219 90 -160.781 0 0 0 -79.937 -7.01671e-015 -180 2.06851 15.2161 3.8903 -22.989 1.37021e-015 90 0 0 0 -85.3358 0.000106812 -180 0 0 0 -120.289 -1.29789e-005 2.26196e-006 0 0 0 133.74 -1.11821e-005 -8.42251e-006 0 0 0 1.83152 3.18084e-007 -9.97835e-008 0 0 0 -17.65 4.54585e-007 8.49692e-007 0 0 0 -26.1943 5.25394e-006 9.78133e-007 15.5776 -0.000396 -7.00002e-006 8.82781e-032 -1.59028e-015 3.18055e-015 9.40426 1.04082 -6.51497 20.085 -63.0869 115.54 2.77262 -0.004957 0.002971 28.9504 -27.338 44.6467 9.40468 1.04075 6.51499 20.1753 62.9994 -115.712 2.77267 -0.004968 -0.002937 28.9718 27.308 -44.7653 
0 0 0 -0 -90 -0 21.8516 -28.7007 10.0845 -118.801 75.7007 -80.9687 0 0 0 -90.0002 0.000231544 -99.0002 -6.39551 -3.85977 1.01349 143.183 1.36197 21.0579 10.3809 -0.007484 -0.002567 -17.5433 18.1542 -0.200125 10.3866 -0.006023 0.004602 28.5434 -33.3174 -19.4709 10.3872 -0.005796 -0.004207 35.1132 31.9484 -10.6625 10.3879 -0.006753 6.99956e-005 35.2541 0.158024 15.286 1.3e-005 -1.1e-005 -8.75617 -114.54 -3.10082 167.62 19.7638 2e-006 -1e-006 -70.8263 -0.000231551 -0.00138407 18.6534 -1e-006 1e-006 -17.3895 7.65783 -4.45374 5.09144 13.9567 -1e-006 70.16 8.29982 17.1774 4.288 1e-006 0 20.0009 -2.24819e-005 -1.03411e-005 3.85799 1e-006 7.54952e-015 -45 -6.8582e-006 7.29905e-006 -1.1e-005 9e-006 8.75617 -93.9079 12.3335 156.457 19.7638 -5.32907e-015 0 -52.8263 -0.000567667 -0.00168234 18.6534 -1e-006 7.10543e-015 -0.165537 10.3651 -19.3616 5.09143 13.9567 1.59906e-006 70.3981 2.79391 4.14844 4.288 4.61853e-014 -1e-006 20.0003 -4.17957e-007 -5.90142e-007 3.85799 1e-006 -1e-006 -45 -1.26626e-005 -1.07929e-005 9.03561 -0.006311 -1.43103 0.0464352 0.00749714 9.00087 8.04461 -0.006334 7.10543e-015 8.5 7.35033e-006 -1.85935e-005 8.04434 -0.006294 9.7e-005 6.49116 -0.560847 6.81154 8.04535 -0.008085 2.40033e-005 12.3033 0.596536 3.86055 10.6709 1.06821 0.00016431 9.83899 0.00217194 0.00181916 -4.88318 -3.23981 -9.0479 170.12 -74.9168 142.003 19.0492 -1e-006 -3e-006 85.5218 22.4077 -84.9007 10.3706 -7.10543e-015 -1.55431e-015 -59.7 -4.0245e-005 -0.000153021 22.8631 0 -2.66454e-015 -7.36592 6.21595 -9.39322 6.48256 0.103651 0.504494 -18.2002 -13.6575 -7.3983 3.66843 -2e-006 2e-006 40.107 3.79788e-006 5.87184e-006 -4.88304 -3.2397 9.04777 -9.87822 88.583 51.497 19.0492 1e-006 3e-006 56.5715 -19.8321 90.2416 10.3706 -1e-006 -1e-006 -107.202 -0.000130319 0.000942256 22.8631 -9.23705e-014 1e-006 38.1635 -21.9752 38.4935 6.48256 0.103649 -0.504497 -18.2 13.6582 7.40053 3.66843 -3e-006 2.52243e-013 39.4727 1.25308e-005 -3.01395e-006 7.52606 -0.006635 3.19989e-005 -0.464736 -0.0995046 7.69452 8.47433 -0.00657 2.9999e-005 -5.99882 0.00942608 10.5027 8.41604 -7.10543e-015 0 -69.5405 -3.02159 3.5175 -1e-006 4e-006 -1e-006 -23.1098 1.37701e-015 90 1.15107e-005 -0.500007 3.81335e-006 -109.216 90 -160.784 0 0 0 -79.937 -3.24611e-014 -180 2.06851 15.2161 3.8903 -22.989 1.37021e-015 90 0 0 0 -85.3358 0.000106812 -180 0 0 0 -120.289 -1.29782e-005 2.26202e-006 0 0 0 133.74 -1.11814e-005 -8.42195e-006 0 0 0 1.83152 3.18122e-007 -9.97786e-008 0 0 0 -17.65 4.54319e-007 8.49635e-007 0 0 0 -26.1943 5.2541e-006 9.7817e-007 15.5776 -0.000396 -7.00002e-006 1.76556e-031 -3.18055e-015 3.18055e-015 9.40426 1.04082 -6.51497 19.3126 -63.785 115.22 2.77262 -0.004957 0.002971 28.9504 -27.338 44.6469 9.40468 1.04075 6.51499 19.4085 63.6975 -115.396 2.77267 -0.004968 -0.002937 28.9718 27.3081 -44.7652 
0 0 0 -0 -90 -0 21.8518 -28.7007 10.0847 -118.798 75.6995 -80.9716 0 0 0 -90.0001 0.000143222 -99.0001 -6.39551 -3.85977 1.01354 143.183 1.3623 21.059 10.3809 -0.007484 -0.002567 -17.544 18.1542 -0.20003 10.3866 -0.006023 0.004602 29.4669 -34.0874 -19.5843 10.3872 -0.005796 -0.004207 36.3656 32.4336 -11.2283 10.3879 -0.006753 6.99946e-005 36.2877 0.29963 15.5644 1.3e-005 -1.1e-005 -8.75617 -114.539 -3.10043 167.619 19.7638 2e-006 -1e-006 -70.8237 -0.000231613 -0.00138406 18.6534 -1e-006 1e-006 -17.3905 7.65733 -4.4528 5.09144 13.9567 -1e-006 70.1603 8.2988 17.1764 4.288 1e-006 0 20.0009 -2.24819e-005 -1.03411e-005 3.85799 1e-006 5.32907e-015 -45 -6.85822e-006 7.29902e-006 -1.1e-005 9e-006 8.75617 -93.9071 12.333 156.456 19.7638 5.32907e-015 3.55271e-015 -52.8245 -0.000567722 -0.00168232 18.6534 -1e-006 7.10543e-015 -0.166571 10.3648 -19.3616 5.09143 13.9567 1.59903e-006 70.3981 2.79391 4.14844 4.288 4.26326e-014 -1e-006 20.0003 -4.17855e-007 -5.90074e-007 3.85799 1e-006 -1e-006 -45 -1.26627e-005 -1.07931e-005 9.03564 -0.006311 -1.43111 0.0464352 0.00749743 9.00122 8.04461 -0.006334 0 8.5 7.35033e-006 -1.85935e-005 8.04434 -0.006294 9.7e-005 6.49064 -0.560886 6.81139 8.04535 -0.008085 2.40033e-005 12.3033 0.596536 3.86056 10.6709 1.06821 0.00016431 9.83899 0.00217194 0.00181916 -4.88318 -3.23981 -9.0479 170.117 -74.917 142.001 19.0492 -1e-006 -3e-006 85.5235 22.4092 -84.8999 10.3706 -7.10543e-015 -3.55271e-015 -59.6967 -4.02539e-005 -0.000153019 22.8631 1.42109e-014 -5.55112e-015 -7.36631 6.21641 -9.39422 6.48256 0.103651 0.504494 -18.2002 -13.6575 -7.3983 3.66843 -2e-006 2e-006 40.107 3.7978e-006 5.8715e-006 -4.88304 -3.2397 9.04777 -9.87696 88.5829 51.4956 19.0492 1e-006 3e-006 56.5703 -19.8329 90.2421 10.3706 -1e-006 -1e-006 -107.202 -0.000130312 0.000942257 22.8631 -7.81597e-014 1e-006 38.1633 -21.975 38.4931 6.48256 0.103649 -0.504497 -18.2 13.6582 7.40053 3.66843 -3e-006 2.8777e-013 39.4727 1.25308e-005 -3.01392e-006 7.52606 -0.006635 3.19989e-005 -0.464335 -0.0994546 7.69503 8.47433 -0.00657 2.9999e-005 -5.99848 0.00939959 10.5037 8.41604 -3.55271e-015 1.06581e-014 -69.5413 -3.02125 3.51788 -1e-006 4e-006 -1e-006 -23.1098 1.37701e-015 90 1.15107e-005 -0.500007 3.81335e-006 -109.214 90 -160.786 0 0 0 -79.937 7.01671e-015 -180 2.06851 15.2161 3.8903 -22.989 1.37021e-015 90 0 0 0 -85.3358 0.000106812 -180 0 0 0 -120.289 -1.29776e-005 2.26205e-006 0 0 0 133.74 -1.11808e-005 -8.42152e-006 0 0 0 1.83152 3.18149e-007 -9.97744e-008 0 0 0 -17.65 4.54117e-007 8.49587e-007 0 0 0 -26.1943 5.25422e-006 9.78192e-007 15.5776 -0.000396 -7.00002e-006 3.18055e-015 4.77083e-015 3.18055e-015 9.40426 1.04082 -6.51497 18.5196 -64.4821 114.874 2.77262 -0.004957 0.002971 28.9505 -27.3379 44.647 9.40468 1.04075 6.51499 18.6213 64.3945 -115.055 2.77267 -0.004968 -0.002937 28.9718 27.3082 -44.765 
0 0 0 -0 -90 -0 21.851 -28.7007 10.0848 -118.804 75.7029 -80.9654 0 0 0 -89.9999 -0.000176639 -99 -6.39551 -3.85977 1.01349 143.183 1.3623 21.0581 10.3809 -0.007484 -0.002567 -17.5428 18.1524 -0.20032 10.3866 -0.006023 0.004602 30.02 -34.5428 -19.6346 10.3872 -0.005796 -0.004207 37.1116 32.7101 -11.5713 10.3879 -0.006753 6.99938e-005 36.9 0.388195 15.7257 1.3e-005 -1.1e-005 -8.75617 -114.543 -3.10244 167.623 19.7638 2e-006 -1e-006 -70.8301 -0.000231458 -0.00138409 18.6534 -1e-006 1e-006 -17.3855 7.6593 -4.45661 5.09144 13.9567 -1e-006 70.1584 8.30152 17.1785 4.288 1e-006 -8.88179e-015 20.0009 -2.24819e-005 -1.03411e-005 3.85799 1e-006 1.06581e-014 -45 -6.85823e-006 7.29902e-006 -1.1e-005 9e-006 8.75617 -93.9097 12.3336 156.458 19.7638 -3.55271e-015 0 -52.828 -0.000567618 -0.00168235 18.6534 -1e-006 2.84217e-014 -0.163929 10.3641 -19.3608 5.09143 13.9567 1.59903e-006 70.3981 2.79391 4.14844 4.288 4.26326e-014 -1e-006 20.0003 -4.17645e-007 -5.90054e-007 3.85799 1e-006 -1e-006 -45 -1.26628e-005 -1.07933e-005 9.03566 -0.006311 -1.43104 0.0464352 0.00749695 9.00064 8.04461 -0.006334 3.55271e-015 8.5 7.35033e-006 -1.85935e-005 8.04434 -0.006294 9.7e-005 6.49088 -0.56089 6.81102 8.04535 -0.008085 2.40033e-005 12.3033 0.596538 3.86056 10.6709 1.06821 0.00016431 9.83899 0.00217194 0.00181916 -4.88318 -3.23981 -9.0479 170.116 -74.9169 142.001 19.0492 -1e-006 -3e-006 85.5209 22.4041 -84.9029 10.3706 3.55271e-015 6.66134e-016 -59.7045 -4.02327e-005 -0.000153024 22.8631 -3.55271e-015 2.44249e-015 -7.36448 6.21447 -9.39119 6.48256 0.103651 0.504494 -18.2002 -13.6575 -7.3983 3.66843 -2e-006 2e-006 40.107 3.79838e-006 5.87185e-006 -4.88304 -3.2397 9.04777 -9.88754 88.5835 51.5057 19.0492 1e-006 3e-006 56.572 -19.8299 90.2423 10.3706 -1e-006 -1e-006 -107.204 -0.000130337 0.000942254 22.8631 -7.81597e-014 1e-006 38.1641 -21.9769 38.4928 6.48256 0.103649 -0.504497 -18.2 13.6582 7.40053 3.66843 -3e-006 2.77112e-013 39.4727 1.25307e-005 -3.01418e-006 7.52606 -0.006635 3.19989e-005 -0.464113 -0.0994229 7.69482 8.47433 -0.00657 2.9999e-005 -6.00007 0.00925317 10.501 8.41604 0 -7.10543e-015 -69.5383 -3.02197 3.51507 -1e-006 4e-006 -1e-006 -23.1098 1.37701e-015 90 1.15107e-005 -0.500007 3.81333e-006 -109.227 90 -160.773 0 0 0 -79.937 -7.01671e-015 -180 2.06851 15.2161 3.8903 -22.989 1.37021e-015 90 0 0 0 -85.3358 0.000106812 -180 0 0 0 -120.289 -1.29799e-005 2.2615e-006 0 0 0 133.74 -1.11828e-005 -8.42338e-006 0 0 0 1.83152 3.17977e-007 -9.97801e-008 0 0 0 -17.65 4.55128e-007 8.49692e-007 0 0 0 -26.1943 5.25378e-006 9.77892e-007 15.5776 -0.000396 -7.00002e-006 -8.82781e-032 1.59028e-015 3.18055e-015 9.40426 1.04082 -6.51497 17.7026 -65.1642 114.499 2.77262 -0.004957 0.002971 28.9505 -27.3377 44.6477 9.40468 1.04075 6.51499 17.8097 65.0771 -114.685 2.77267 -0.004968 -0.002937 28.9717 27.3084 -44.7643 
